<?xml version="1.0" encoding="UTF-8" standalone="no"?>
<!-- Created with Inkscape (http://www.inkscape.org/) -->

<svg
   xmlns:dc="http://purl.org/dc/elements/1.1/"
   xmlns:cc="http://creativecommons.org/ns#"
   xmlns:rdf="http://www.w3.org/1999/02/22-rdf-syntax-ns#"
   xmlns:svg="http://www.w3.org/2000/svg"
   xmlns="http://www.w3.org/2000/svg"
   xmlns:sodipodi="http://sodipodi.sourceforge.net/DTD/sodipodi-0.dtd"
   xmlns:inkscape="http://www.inkscape.org/namespaces/inkscape"
   version="1.1"
   width="71.990753"
   height="5.2166252"
   id="svg2"
   xml:space="preserve"
   inkscape:version="0.48.5 r10040"
   sodipodi:docname="bare.svg"><sodipodi:namedview
     pagecolor="#ffffff"
     bordercolor="#666666"
     borderopacity="1"
     objecttolerance="10"
     gridtolerance="10"
     guidetolerance="10"
     inkscape:pageopacity="0"
     inkscape:pageshadow="2"
     inkscape:window-width="308"
     inkscape:window-height="47"
     id="namedview8"
     showgrid="false"
     inkscape:zoom="0.22422803"
     inkscape:cx="372.4375"
     inkscape:cy="457.99275"
     inkscape:window-x="12"
     inkscape:window-y="40"
     inkscape:window-maximized="0"
     inkscape:current-layer="svg2" /><metadata
     id="metadata8"><rdf:RDF><cc:Work
         rdf:about=""><dc:format>image/svg+xml</dc:format><dc:type
           rdf:resource="http://purl.org/dc/dcmitype/StillImage" /></cc:Work></rdf:RDF></metadata><defs
     id="defs6" /><g
     transform="matrix(1.25,0,0,-1.25,0.5625,73.473875)"
     id="g10"><g
       transform="scale(0.1,0.1)"
       id="g12"><path
         d="m 0,566.926 c 12.5977,21.82 44.0977,21.82 56.6953,0 12.5977,-21.821 44.0897,-21.821 56.6877,0 12.597,21.82 44.097,21.82 56.695,0 12.598,-21.821 44.09,-21.821 56.688,0 12.601,21.82 44.097,21.82 56.695,0 12.601,-21.824 44.098,-21.824 56.699,0 12.594,21.816 44.09,21.816 56.688,0 12.597,-21.824 44.093,-21.824 56.695,0 12.598,21.816 44.09,21.816 56.687,0 12.598,-21.824 44.094,-21.824 56.696,0"
         inkscape:connector-curvature="0"
         id="path14"
         style="fill:none;stroke:#000000;stroke-width:9;stroke-linecap:round;stroke-linejoin:round;stroke-miterlimit:10;stroke-opacity:1;stroke-dasharray:none" /></g></g></svg>