<?xml version="1.0" encoding="UTF-8" standalone="no"?>
<!-- Created with Inkscape (http://www.inkscape.org/) -->

<svg
   xmlns:dc="http://purl.org/dc/elements/1.1/"
   xmlns:cc="http://creativecommons.org/ns#"
   xmlns:rdf="http://www.w3.org/1999/02/22-rdf-syntax-ns#"
   xmlns:svg="http://www.w3.org/2000/svg"
   xmlns="http://www.w3.org/2000/svg"
   xmlns:sodipodi="http://sodipodi.sourceforge.net/DTD/sodipodi-0.dtd"
   xmlns:inkscape="http://www.inkscape.org/namespaces/inkscape"
   version="1.1"
   width="107.42338"
   height="43.841373"
   id="svg2"
   xml:space="preserve"
   inkscape:version="0.48.5 r10040"
   sodipodi:docname="bibubble.svg"><sodipodi:namedview
     pagecolor="#ffffff"
     bordercolor="#666666"
     borderopacity="1"
     objecttolerance="10"
     gridtolerance="10"
     guidetolerance="10"
     inkscape:pageopacity="0"
     inkscape:pageshadow="2"
     inkscape:window-width="164"
     inkscape:window-height="160"
     id="namedview2997"
     showgrid="false"
     inkscape:zoom="0.22422803"
     inkscape:cx="372.4375"
     inkscape:cy="495.0215"
     inkscape:window-x="12"
     inkscape:window-y="40"
     inkscape:window-maximized="0"
     inkscape:current-layer="svg2" /><metadata
     id="metadata8"><rdf:RDF><cc:Work
         rdf:about=""><dc:format>image/svg+xml</dc:format><dc:type
           rdf:resource="http://purl.org/dc/dcmitype/StillImage" /></cc:Work></rdf:RDF></metadata><defs
     id="defs6" /><g
     transform="matrix(1.25,0,0,-1.25,0.5625,75.069875)"
     id="g10"><g
       transform="scale(0.1,0.1)"
       id="g12"><path
         d="m 0,425.195 c 10.125,17.535 35.4336,17.535 45.5586,0 10.1211,-17.535 35.4297,-17.535 45.5547,0 10.1207,17.535 35.4337,17.535 45.5547,0 10.125,-17.535 35.434,-17.535 45.559,0 10.125,17.532 35.429,17.532 45.554,0 10.125,-17.539 35.434,-17.539 45.559,0"
         inkscape:connector-curvature="0"
         id="path14"
         style="fill:none;stroke:#000000;stroke-width:9;stroke-linecap:round;stroke-linejoin:round;stroke-miterlimit:10;stroke-opacity:1;stroke-dasharray:none" /><path
         d="m 425.195,307.086 c -15.156,8.746 -15.156,30.621 0,39.371 15.153,8.746 15.153,30.617 0,39.367 -15.156,8.746 -15.156,30.621 0,39.371 15.153,8.746 15.153,30.621 0,39.371 -15.156,8.746 -15.156,30.618 0,39.368 15.153,8.746 15.153,30.621 0,39.371"
         inkscape:connector-curvature="0"
         id="path16"
         style="fill:none;stroke:#000000;stroke-width:9;stroke-linecap:round;stroke-linejoin:round;stroke-miterlimit:10;stroke-opacity:1;stroke-dasharray:none" /><path
         d="m 273.34,425.195 c 0,83.864 67.988,151.852 151.851,151.852 83.868,0 151.856,-67.988 151.856,-151.856"
         inkscape:connector-curvature="0"
         id="path18"
         style="fill:none;stroke:#000000;stroke-width:9;stroke-linecap:round;stroke-linejoin:round;stroke-miterlimit:10;stroke-opacity:1;stroke-dasharray:none" /><path
         d="m 387.805,543.242 c 10.8,6.047 22.519,10.863 35.019,14.215 25.645,6.871 51.516,6.75 75.59,0.805 -17.875,17.183 -40.219,30.226 -65.863,37.097 -12.504,3.352 -25.063,5.039 -37.438,5.2"
         inkscape:connector-curvature="0"
         id="path20"
         style="fill:#000000;fill-opacity:1;fill-rule:nonzero;stroke:none" /><path
         d="m 577.047,425.191 c 10.125,17.536 35.433,17.536 45.558,0 10.125,-17.531 35.43,-17.531 45.555,0 10.125,17.539 35.434,17.539 45.559,0.004 10.125,-17.535 35.433,-17.535 45.558,0 10.121,17.532 35.43,17.532 45.551,0 10.125,-17.535 35.434,-17.535 45.559,0"
         inkscape:connector-curvature="0"
         id="path22"
         style="fill:none;stroke:#000000;stroke-width:9;stroke-linecap:round;stroke-linejoin:round;stroke-miterlimit:10;stroke-opacity:1;stroke-dasharray:none" /><path
         d="m 577.047,425.191 c 0,-83.867 -67.988,-151.851 -151.856,-151.851 -83.867,0 -151.851,67.988 -151.851,151.855"
         inkscape:connector-curvature="0"
         id="path24"
         style="fill:none;stroke:#000000;stroke-width:9;stroke-linecap:round;stroke-linejoin:round;stroke-miterlimit:10;stroke-opacity:1;stroke-dasharray:none" /><path
         d="m 462.582,307.145 c -10.801,-6.047 -22.52,-10.864 -35.023,-14.215 -25.641,-6.871 -51.512,-6.75 -75.586,-0.805 17.875,-17.184 40.218,-30.227 65.863,-37.098 12.504,-3.351 25.059,-5.039 37.437,-5.199"
         inkscape:connector-curvature="0"
         id="path26"
         style="fill:#000000;fill-opacity:1;fill-rule:nonzero;stroke:none" /></g></g></svg>