<?xml version="1.0" encoding="UTF-8" standalone="no"?>
<!-- Created with Inkscape (http://www.inkscape.org/) -->

<svg
   xmlns:dc="http://purl.org/dc/elements/1.1/"
   xmlns:cc="http://creativecommons.org/ns#"
   xmlns:rdf="http://www.w3.org/1999/02/22-rdf-syntax-ns#"
   xmlns:svg="http://www.w3.org/2000/svg"
   xmlns="http://www.w3.org/2000/svg"
   xmlns:sodipodi="http://sodipodi.sourceforge.net/DTD/sodipodi-0.dtd"
   xmlns:inkscape="http://www.inkscape.org/namespaces/inkscape"
   version="1.1"
   width="107.42338"
   height="33.015125"
   id="svg2"
   xml:space="preserve"
   inkscape:version="0.48.5 r10040"
   sodipodi:docname="dressed.svg"><sodipodi:namedview
     pagecolor="#ffffff"
     bordercolor="#666666"
     borderopacity="1"
     objecttolerance="10"
     gridtolerance="10"
     guidetolerance="10"
     inkscape:pageopacity="0"
     inkscape:pageshadow="2"
     inkscape:window-width="112"
     inkscape:window-height="131"
     id="namedview3030"
     showgrid="false"
     inkscape:zoom="0.22422803"
     inkscape:cx="372.4375"
     inkscape:cy="489.60837"
     inkscape:window-x="1004"
     inkscape:window-y="40"
     inkscape:window-maximized="0"
     inkscape:current-layer="svg2" /><metadata
     id="metadata8"><rdf:RDF><cc:Work
         rdf:about=""><dc:format>image/svg+xml</dc:format><dc:type
           rdf:resource="http://purl.org/dc/dcmitype/StillImage" /></cc:Work></rdf:RDF></metadata><defs
     id="defs6"><clipPath
       id="clipPath22"><path
         d="m 552.754,425.195 c 0,33.832 -13.442,66.274 -37.363,90.196 -23.922,23.921 -56.364,37.363 -90.196,37.363 -33.832,0 -66.277,-13.442 -90.199,-37.363 -23.918,-23.922 -37.363,-56.364 -37.363,-90.196 0,-33.832 13.445,-66.277 37.363,-90.199 23.922,-23.918 56.367,-37.363 90.199,-37.363 33.832,0 66.274,13.445 90.196,37.363 23.921,23.922 37.363,56.367 37.363,90.199 z"
         inkscape:connector-curvature="0"
         id="path24" /></clipPath></defs><g
     transform="matrix(1.25,0,0,-1.25,0.5625,69.65675)"
     id="g10"><g
       transform="scale(0.1,0.1)"
       id="g12"><path
         d="m 0,425.195 c 11.0234,19.094 38.582,19.094 49.6055,0 11.0234,-19.093 38.582,-19.093 49.6054,0 11.0231,19.094 38.5821,19.094 49.6051,0 11.024,-19.093 38.586,-19.093 49.61,0 11.023,19.09 38.578,19.09 49.601,0 11.024,-19.093 38.582,-19.093 49.606,0"
         inkscape:connector-curvature="0"
         id="path14"
         style="fill:none;stroke:#000000;stroke-width:9;stroke-linecap:round;stroke-linejoin:round;stroke-miterlimit:10;stroke-opacity:1;stroke-dasharray:none" /><path
         d="m 552.754,425.195 c 11.023,19.094 38.582,19.094 49.605,0 11.024,-19.093 38.582,-19.093 49.606,0 11.023,19.094 38.582,19.094 49.605,0 11.024,-19.093 38.582,-19.093 49.61,0 11.019,19.09 38.578,19.09 49.601,0 11.024,-19.093 38.582,-19.093 49.606,0"
         inkscape:connector-curvature="0"
         id="path16"
         style="fill:none;stroke:#000000;stroke-width:9;stroke-linecap:round;stroke-linejoin:round;stroke-miterlimit:10;stroke-opacity:1;stroke-dasharray:none" /><g
         id="g18"><g
           clip-path="url(#clipPath22)"
           id="g20"><path
             d="m 297.633,297.633 255.121,0 0,255.121 -255.121,0 0,-255.121 z"
             inkscape:connector-curvature="0"
             id="path26"
             style="fill:#ffffff;fill-opacity:1;fill-rule:nonzero;stroke:none" /><path
             d="M 267.633,267.633 582.754,582.754"
             inkscape:connector-curvature="0"
             id="path28"
             style="fill:none;stroke:#000000;stroke-width:9;stroke-linecap:round;stroke-linejoin:round;stroke-miterlimit:10;stroke-opacity:1;stroke-dasharray:none" /><path
             d="M 267.633,267.633 582.754,582.754"
             inkscape:connector-curvature="0"
             id="path30"
             style="fill:none;stroke:#000000;stroke-width:9;stroke-linecap:round;stroke-linejoin:round;stroke-miterlimit:10;stroke-opacity:1;stroke-dasharray:none" /><path
             d="M 267.633,297.637 552.75,582.754"
             inkscape:connector-curvature="0"
             id="path32"
             style="fill:none;stroke:#000000;stroke-width:9;stroke-linecap:round;stroke-linejoin:round;stroke-miterlimit:10;stroke-opacity:1;stroke-dasharray:none" /><path
             d="M 297.637,267.633 582.754,552.75"
             inkscape:connector-curvature="0"
             id="path34"
             style="fill:none;stroke:#000000;stroke-width:9;stroke-linecap:round;stroke-linejoin:round;stroke-miterlimit:10;stroke-opacity:1;stroke-dasharray:none" /><path
             d="M 267.633,327.637 522.75,582.754"
             inkscape:connector-curvature="0"
             id="path36"
             style="fill:none;stroke:#000000;stroke-width:9;stroke-linecap:round;stroke-linejoin:round;stroke-miterlimit:10;stroke-opacity:1;stroke-dasharray:none" /><path
             d="M 327.637,267.633 582.754,522.75"
             inkscape:connector-curvature="0"
             id="path38"
             style="fill:none;stroke:#000000;stroke-width:9;stroke-linecap:round;stroke-linejoin:round;stroke-miterlimit:10;stroke-opacity:1;stroke-dasharray:none" /><path
             d="M 267.633,357.641 492.746,582.754"
             inkscape:connector-curvature="0"
             id="path40"
             style="fill:none;stroke:#000000;stroke-width:9;stroke-linecap:round;stroke-linejoin:round;stroke-miterlimit:10;stroke-opacity:1;stroke-dasharray:none" /><path
             d="M 357.641,267.633 582.754,492.746"
             inkscape:connector-curvature="0"
             id="path42"
             style="fill:none;stroke:#000000;stroke-width:9;stroke-linecap:round;stroke-linejoin:round;stroke-miterlimit:10;stroke-opacity:1;stroke-dasharray:none" /><path
             d="M 267.633,387.641 462.746,582.754"
             inkscape:connector-curvature="0"
             id="path44"
             style="fill:none;stroke:#000000;stroke-width:9;stroke-linecap:round;stroke-linejoin:round;stroke-miterlimit:10;stroke-opacity:1;stroke-dasharray:none" /><path
             d="M 387.641,267.633 582.754,462.746"
             inkscape:connector-curvature="0"
             id="path46"
             style="fill:none;stroke:#000000;stroke-width:9;stroke-linecap:round;stroke-linejoin:round;stroke-miterlimit:10;stroke-opacity:1;stroke-dasharray:none" /><path
             d="M 267.633,417.645 432.742,582.754"
             inkscape:connector-curvature="0"
             id="path48"
             style="fill:none;stroke:#000000;stroke-width:9;stroke-linecap:round;stroke-linejoin:round;stroke-miterlimit:10;stroke-opacity:1;stroke-dasharray:none" /><path
             d="M 417.645,267.633 582.754,432.742"
             inkscape:connector-curvature="0"
             id="path50"
             style="fill:none;stroke:#000000;stroke-width:9;stroke-linecap:round;stroke-linejoin:round;stroke-miterlimit:10;stroke-opacity:1;stroke-dasharray:none" /><path
             d="M 267.633,447.645 402.742,582.754"
             inkscape:connector-curvature="0"
             id="path52"
             style="fill:none;stroke:#000000;stroke-width:9;stroke-linecap:round;stroke-linejoin:round;stroke-miterlimit:10;stroke-opacity:1;stroke-dasharray:none" /><path
             d="M 447.645,267.633 582.754,402.742"
             inkscape:connector-curvature="0"
             id="path54"
             style="fill:none;stroke:#000000;stroke-width:9;stroke-linecap:round;stroke-linejoin:round;stroke-miterlimit:10;stroke-opacity:1;stroke-dasharray:none" /><path
             d="M 267.633,477.648 372.738,582.754"
             inkscape:connector-curvature="0"
             id="path56"
             style="fill:none;stroke:#000000;stroke-width:9;stroke-linecap:round;stroke-linejoin:round;stroke-miterlimit:10;stroke-opacity:1;stroke-dasharray:none" /><path
             d="M 477.648,267.633 582.754,372.738"
             inkscape:connector-curvature="0"
             id="path58"
             style="fill:none;stroke:#000000;stroke-width:9;stroke-linecap:round;stroke-linejoin:round;stroke-miterlimit:10;stroke-opacity:1;stroke-dasharray:none" /><path
             d="m 267.633,507.648 75.105,75.106"
             inkscape:connector-curvature="0"
             id="path60"
             style="fill:none;stroke:#000000;stroke-width:9;stroke-linecap:round;stroke-linejoin:round;stroke-miterlimit:10;stroke-opacity:1;stroke-dasharray:none" /><path
             d="m 507.648,267.633 75.106,75.105"
             inkscape:connector-curvature="0"
             id="path62"
             style="fill:none;stroke:#000000;stroke-width:9;stroke-linecap:round;stroke-linejoin:round;stroke-miterlimit:10;stroke-opacity:1;stroke-dasharray:none" /></g></g><path
         d="m 552.754,425.195 c 0,33.832 -13.442,66.274 -37.363,90.196 -23.922,23.921 -56.364,37.363 -90.196,37.363 -33.832,0 -66.277,-13.442 -90.199,-37.363 -23.918,-23.922 -37.363,-56.364 -37.363,-90.196 0,-33.832 13.445,-66.277 37.363,-90.199 23.922,-23.918 56.367,-37.363 90.199,-37.363 33.832,0 66.274,13.445 90.196,37.363 23.921,23.922 37.363,56.367 37.363,90.199 z"
         inkscape:connector-curvature="0"
         id="path64"
         style="fill:none;stroke:#000000;stroke-width:9;stroke-linecap:round;stroke-linejoin:round;stroke-miterlimit:10;stroke-opacity:1;stroke-dasharray:none" /></g></g></svg>