<?xml version="1.0" encoding="UTF-8" standalone="no"?>
<!-- Created with Inkscape (http://www.inkscape.org/) -->

<svg
   xmlns:dc="http://purl.org/dc/elements/1.1/"
   xmlns:cc="http://creativecommons.org/ns#"
   xmlns:rdf="http://www.w3.org/1999/02/22-rdf-syntax-ns#"
   xmlns:svg="http://www.w3.org/2000/svg"
   xmlns="http://www.w3.org/2000/svg"
   xmlns:sodipodi="http://sodipodi.sourceforge.net/DTD/sodipodi-0.dtd"
   xmlns:inkscape="http://www.inkscape.org/namespaces/inkscape"
   version="1.1"
   width="107.42338"
   height="41.191803"
   id="svg2"
   xml:space="preserve"
   inkscape:version="0.48.5 r10040"
   sodipodi:docname="one-floop.svg"><sodipodi:namedview
     pagecolor="#ffffff"
     bordercolor="#666666"
     borderopacity="1"
     objecttolerance="10"
     gridtolerance="10"
     guidetolerance="10"
     inkscape:pageopacity="0"
     inkscape:pageshadow="2"
     inkscape:window-width="266"
     inkscape:window-height="259"
     id="namedview3047"
     showgrid="false"
     inkscape:zoom="0.22422803"
     inkscape:cx="372.4375"
     inkscape:cy="493.69648"
     inkscape:window-x="12"
     inkscape:window-y="40"
     inkscape:window-maximized="0"
     inkscape:current-layer="svg2" /><metadata
     id="metadata8"><rdf:RDF><cc:Work
         rdf:about=""><dc:format>image/svg+xml</dc:format><dc:type
           rdf:resource="http://purl.org/dc/dcmitype/StillImage" /></cc:Work></rdf:RDF></metadata><defs
     id="defs6" /><g
     transform="matrix(1.25,0,0,-1.25,0.5625,73.745326)"
     id="g10"><g
       transform="scale(0.1,0.1)"
       id="g12"><path
         d="m 0,425.195 c 9.76172,16.907 34.1641,16.907 43.9258,0 9.7578,-16.906 34.1601,-16.906 43.918,0 9.7617,16.907 34.1642,16.907 43.9262,0 9.757,-16.906 34.16,-16.906 43.921,0 9.762,16.903 34.161,16.903 43.922,0 9.758,-16.906 34.16,-16.906 43.922,0"
         inkscape:connector-curvature="0"
         id="path14"
         style="fill:none;stroke:#000000;stroke-width:9;stroke-linecap:round;stroke-linejoin:round;stroke-miterlimit:10;stroke-opacity:1;stroke-dasharray:none" /><path
         d="m 284.844,445.07 c 9.668,68.868 68.82,121.856 140.351,121.856 71.528,0 130.684,-52.988 140.348,-121.856"
         inkscape:connector-curvature="0"
         id="path16"
         style="fill:none;stroke:#000000;stroke-width:9;stroke-linecap:round;stroke-linejoin:round;stroke-miterlimit:10;stroke-opacity:1;stroke-dasharray:none" /><path
         d="m 387.574,532.852 c 10.684,6.242 22.364,11.175 34.891,14.531 25.734,6.894 51.715,6.246 75.59,-0.594 -17.258,17.859 -39.434,31.41 -65.168,38.309 -12.524,3.355 -25.11,4.922 -37.481,4.863"
         inkscape:connector-curvature="0"
         id="path18"
         style="fill:#000000;fill-opacity:1;fill-rule:nonzero;stroke:none" /><path
         d="m 586.852,425.195 c 9.761,16.907 34.164,16.907 43.925,0 9.758,-16.906 34.161,-16.906 43.918,0 9.762,16.907 34.164,16.907 43.926,0 9.758,-16.906 34.16,-16.906 43.922,0 9.762,16.903 34.16,16.903 43.922,0 9.758,-16.906 34.16,-16.906 43.922,0"
         inkscape:connector-curvature="0"
         id="path20"
         style="fill:none;stroke:#000000;stroke-width:9;stroke-linecap:round;stroke-linejoin:round;stroke-miterlimit:10;stroke-opacity:1;stroke-dasharray:none" /><path
         d="m 565.543,405.316 c -9.664,-68.863 -68.82,-121.855 -140.348,-121.855 -71.531,0 -130.683,52.992 -140.351,121.855"
         inkscape:connector-curvature="0"
         id="path22"
         style="fill:none;stroke:#000000;stroke-width:9;stroke-linecap:round;stroke-linejoin:round;stroke-miterlimit:10;stroke-opacity:1;stroke-dasharray:none" /><path
         d="m 462.812,317.535 c -10.679,-6.238 -22.363,-11.172 -34.89,-14.527 -25.734,-6.899 -51.711,-6.246 -75.586,0.59 17.254,-17.86 39.43,-31.41 65.164,-38.305 12.527,-3.359 25.109,-4.926 37.48,-4.863"
         inkscape:connector-curvature="0"
         id="path24"
         style="fill:#000000;fill-opacity:1;fill-rule:nonzero;stroke:none" /><path
         d="m 303.387,425.195 c 0,5.285 -2.098,10.352 -5.836,14.086 -3.735,3.739 -8.805,5.836 -14.09,5.836 -5.281,0 -10.352,-2.097 -14.086,-5.836 -3.738,-3.734 -5.836,-8.801 -5.836,-14.086 0,-5.285 2.098,-10.355 5.836,-14.09 3.734,-3.738 8.805,-5.835 14.086,-5.835 5.285,0 10.355,2.097 14.09,5.835 3.738,3.735 5.836,8.805 5.836,14.09"
         inkscape:connector-curvature="0"
         id="path26"
         style="fill:#000000;fill-opacity:1;fill-rule:nonzero;stroke:none" /><path
         d="m 303.387,425.195 c 0,5.285 -2.098,10.352 -5.836,14.086 -3.735,3.739 -8.805,5.836 -14.09,5.836 -5.281,0 -10.352,-2.097 -14.086,-5.836 -3.738,-3.734 -5.836,-8.801 -5.836,-14.086 0,-5.285 2.098,-10.355 5.836,-14.09 3.734,-3.738 8.805,-5.835 14.086,-5.835 5.285,0 10.355,2.097 14.09,5.835 3.738,3.735 5.836,8.805 5.836,14.09 z"
         inkscape:connector-curvature="0"
         id="path28"
         style="fill:none;stroke:#000000;stroke-width:9;stroke-linecap:round;stroke-linejoin:round;stroke-miterlimit:10;stroke-opacity:1;stroke-dasharray:none" /><path
         d="m 586.852,425.195 c 0,5.285 -2.102,10.352 -5.836,14.086 -3.739,3.739 -8.805,5.836 -14.09,5.836 -5.285,0 -10.352,-2.097 -14.09,-5.836 -3.738,-3.734 -5.836,-8.801 -5.836,-14.086 0,-5.285 2.098,-10.355 5.836,-14.09 3.738,-3.738 8.805,-5.835 14.09,-5.835 5.285,0 10.351,2.097 14.09,5.835 3.734,3.735 5.836,8.805 5.836,14.09"
         inkscape:connector-curvature="0"
         id="path30"
         style="fill:#000000;fill-opacity:1;fill-rule:nonzero;stroke:none" /><path
         d="m 586.852,425.195 c 0,5.285 -2.102,10.352 -5.836,14.086 -3.739,3.739 -8.805,5.836 -14.09,5.836 -5.285,0 -10.352,-2.097 -14.09,-5.836 -3.738,-3.734 -5.836,-8.801 -5.836,-14.086 0,-5.285 2.098,-10.355 5.836,-14.09 3.738,-3.738 8.805,-5.835 14.09,-5.835 5.285,0 10.351,2.097 14.09,5.835 3.734,3.735 5.836,8.805 5.836,14.09 z"
         inkscape:connector-curvature="0"
         id="path32"
         style="fill:none;stroke:#000000;stroke-width:9;stroke-linecap:round;stroke-linejoin:round;stroke-miterlimit:10;stroke-opacity:1;stroke-dasharray:none" /></g></g></svg>