<?xml version="1.0" encoding="UTF-8" standalone="no"?>
<!-- Created with Inkscape (http://www.inkscape.org/) -->

<svg
   xmlns:dc="http://purl.org/dc/elements/1.1/"
   xmlns:cc="http://creativecommons.org/ns#"
   xmlns:rdf="http://www.w3.org/1999/02/22-rdf-syntax-ns#"
   xmlns:svg="http://www.w3.org/2000/svg"
   xmlns="http://www.w3.org/2000/svg"
   xmlns:xlink="http://www.w3.org/1999/xlink"
   xmlns:sodipodi="http://sodipodi.sourceforge.net/DTD/sodipodi-0.dtd"
   xmlns:inkscape="http://www.inkscape.org/namespaces/inkscape"
   width="600"
   height="600"
   id="svg2"
   version="1.1"
   inkscape:version="0.48.5 r10040"
   sodipodi:docname="pluto_scatter.svg">
  <defs
     id="defs4">
    <pattern
       inkscape:collect="always"
       xlink:href="#Strips1_3"
       id="pattern5252"
       patternTransform="matrix(1.1084626,1.1084626,-6.1357572,6.1357572,123.46101,143.10253)" />
    <pattern
       inkscape:collect="always"
       xlink:href="#Strips1_3"
       id="pattern5196"
       patternTransform="matrix(0.52412712,0.52412712,-6.0151986,6.0151986,157.14286,45)" />
    <pattern
       inkscape:stockid="Stripes 1:3"
       id="Strips1_3"
       patternTransform="translate(0,0) scale(10,10)"
       height="1"
       width="4"
       patternUnits="userSpaceOnUse"
       inkscape:collect="always">
      <rect
         id="rect4497"
         height="2"
         width="1"
         y="-0.5"
         x="0"
         style="fill:black;stroke:none" />
    </pattern>
  </defs>
  <sodipodi:namedview
     id="base"
     pagecolor="#ffffff"
     bordercolor="#666666"
     borderopacity="1.0"
     inkscape:pageopacity="1"
     inkscape:pageshadow="2"
     inkscape:zoom="1.4"
     inkscape:cx="408.7353"
     inkscape:cy="539.86581"
     inkscape:document-units="px"
     inkscape:current-layer="layer1"
     showgrid="false"
     inkscape:window-width="1892"
     inkscape:window-height="1024"
     inkscape:window-x="12"
     inkscape:window-y="40"
     inkscape:window-maximized="0">
    <inkscape:grid
       empspacing="5"
       visible="true"
       enabled="true"
       snapvisiblegridlinesonly="true"
       spacingx="15px"
       spacingy="15px"
       type="xygrid"
       id="grid2985" />
  </sodipodi:namedview>
  <metadata
     id="metadata7">
    <rdf:RDF>
      <cc:Work
         rdf:about="">
        <dc:format>image/svg+xml</dc:format>
        <dc:type
           rdf:resource="http://purl.org/dc/dcmitype/StillImage" />
        <dc:title></dc:title>
      </cc:Work>
    </rdf:RDF>
  </metadata>
  <g
     inkscape:label="Layer 1"
     inkscape:groupmode="layer"
     id="layer1"
     transform="translate(0,-452.36218)">
    <path
       sodipodi:type="arc"
       style="fill:url(#pattern5196);fill-opacity:1;stroke:#000000;stroke-opacity:1"
       id="path2990"
       sodipodi:cx="200"
       sodipodi:cy="80"
       sodipodi:rx="30"
       sodipodi:ry="30"
       d="m 230,80 a 30,30 0 1 1 -60,0 30,30 0 1 1 60,0 z"
       transform="matrix(1.5,0,0,1.5,0,467.36218)" />
    <path
       style="fill:none;stroke:#000000;stroke-width:1.5px;stroke-linecap:butt;stroke-linejoin:miter;stroke-opacity:1"
       d="m 135,632.36218 c 0,0 0,0 15,-15 75,-75 105,-105 150,-105 53.03301,0 72.69177,27.69177 150,105 15,15 15,15 15,15"
       id="path5198"
       inkscape:connector-curvature="0"
       sodipodi:nodetypes="csssc" />
    <path
       sodipodi:type="arc"
       style="fill:url(#pattern5252);fill-opacity:1;stroke:#000000;stroke-width:1.89999998;stroke-linecap:butt;stroke-linejoin:round;stroke-miterlimit:4;stroke-opacity:1;stroke-dasharray:none;stroke-dashoffset:0"
       id="path5200"
       sodipodi:cx="200"
       sodipodi:cy="200"
       sodipodi:rx="10"
       sodipodi:ry="10"
       d="m 210,200 a 10,10 0 1 1 -20,0 10,10 0 1 1 20,0 z"
       transform="matrix(0.54000913,0,0,0.54000913,191.99817,584.36035)" />
    <path
       style="fill:none;stroke:#000000;stroke-width:1.5px;stroke-linecap:butt;stroke-linejoin:miter;stroke-opacity:1"
       d="m 135,827.36218 c 0,0 75,-75 105,-105 30,-30 45,-45 60,-45 15,0 30,15 60,45 30,30 105,105 105,105"
       id="path5202"
       inkscape:connector-curvature="0"
       sodipodi:nodetypes="czzzc" />
    <path
       style="fill:none;stroke:#000000;stroke-width:1.5px;stroke-linecap:butt;stroke-linejoin:miter;stroke-opacity:1"
       d="M 135,1007.3622 300,842.36218 465,1007.3622"
       id="path5204"
       inkscape:connector-curvature="0" />
    <path
       transform="matrix(0.2113636,0,0,0.2113636,257.72728,800.36074)"
       d="m 210,200 a 10,10 0 1 1 -20,0 10,10 0 1 1 20,0 z"
       sodipodi:ry="10"
       sodipodi:rx="10"
       sodipodi:cy="200"
       sodipodi:cx="200"
       id="path5206"
       style="fill:#000000;fill-opacity:1;stroke:#000000;stroke-width:1.89999998;stroke-linecap:butt;stroke-linejoin:round;stroke-miterlimit:4;stroke-opacity:1;stroke-dasharray:none;stroke-dashoffset:0"
       sodipodi:type="arc" />
    <path
       style="fill:#000000;fill-opacity:1;stroke:none"
       d="m 438.75,606.11218 0,7.5 7.5,-7.5 z"
       id="path5214"
       inkscape:connector-curvature="0" />
    <path
       inkscape:connector-curvature="0"
       id="path5235"
       d="m 153.75,613.61218 0,-7.5 7.5,7.5 z"
       style="fill:#000000;fill-opacity:1;stroke:none" />
    <path
       inkscape:connector-curvature="0"
       id="path5237"
       d="m 438.75,801.11218 0,7.5 7.5,-7.5 z"
       style="fill:#000000;fill-opacity:1;stroke:none" />
    <path
       style="fill:#000000;fill-opacity:1;stroke:none"
       d="m 153.75,808.61218 0,-7.5 7.5,7.5 z"
       id="path5239"
       inkscape:connector-curvature="0" />
    <path
       inkscape:connector-curvature="0"
       id="path5241"
       d="m 153.75,988.6122 0,-7.5 7.5,7.5 z"
       style="fill:#000000;fill-opacity:1;stroke:none" />
    <path
       style="fill:#000000;fill-opacity:1;stroke:none"
       d="m 438.75,981.1122 0,7.5 7.5,-7.5 z"
       id="path5243"
       inkscape:connector-curvature="0" />
  </g>
</svg>
