<?xml version="1.0" encoding="UTF-8" standalone="no"?>
<!-- Created with Inkscape (http://www.inkscape.org/) -->

<svg
   xmlns:dc="http://purl.org/dc/elements/1.1/"
   xmlns:cc="http://creativecommons.org/ns#"
   xmlns:rdf="http://www.w3.org/1999/02/22-rdf-syntax-ns#"
   xmlns:svg="http://www.w3.org/2000/svg"
   xmlns="http://www.w3.org/2000/svg"
   xmlns:xlink="http://www.w3.org/1999/xlink"
   version="1.2"
   width="600"
   height="600"
   id="svg2">
  <defs
     id="defs4">
    <marker
       refX="0"
       refY="0"
       orient="auto"
       id="Arrow1Lend"
       style="overflow:visible">
      <path
         d="M 0,0 5,-5 -12.5,0 5,5 0,0 z"
         transform="matrix(-0.8,0,0,-0.8,-10,0)"
         id="path5284"
         style="fill-rule:evenodd;stroke:#000000;stroke-width:1pt" />
    </marker>
    <marker
       refX="0"
       refY="0"
       orient="auto"
       id="Arrow1Mend"
       style="overflow:visible">
      <path
         d="M 0,0 5,-5 -12.5,0 5,5 0,0 z"
         transform="matrix(-0.4,0,0,-0.4,-4,0)"
         id="path5290"
         style="fill-rule:evenodd;stroke:#000000;stroke-width:1pt" />
    </marker>
    <marker
       refX="0"
       refY="0"
       orient="auto"
       id="Arrow1Send"
       style="overflow:visible">
      <path
         d="M 0,0 5,-5 -12.5,0 5,5 0,0 z"
         transform="matrix(-0.2,0,0,-0.2,-1.2,0)"
         id="path5296"
         style="fill-rule:evenodd;stroke:#000000;stroke-width:1pt" />
    </marker>
    <pattern
       patternTransform="matrix(1.2372293,1.2372293,-1.2372293,1.2372293,0,0)"
       id="pattern5195"
       xlink:href="#Strips1_3" />
    <pattern
       patternUnits="userSpaceOnUse"
       width="4"
       height="1"
       patternTransform="translate(0,0) scale(10,10)"
       id="Strips1_3">
      <rect
         style="fill:black;stroke:none"
         x="0"
         y="-0.5"
         width="1"
         height="2"
         id="rect4496" />
    </pattern>
  </defs>
  <metadata
     id="metadata7">
    <rdf:RDF>
      <cc:Work
         rdf:about="">
        <dc:format>image/svg+xml</dc:format>
        <dc:type
           rdf:resource="http://purl.org/dc/dcmitype/StillImage" />
        <dc:title></dc:title>
      </cc:Work>
    </rdf:RDF>
  </metadata>
  <g
     transform="translate(0,-452.36218)"
     id="layer1">
    <path
       d="m 380,300 a 80,80 0 1 1 -160,0 80,80 0 1 1 160,0 z"
       transform="translate(0,452.36218)"
       id="path3757"
       style="fill:url(#pattern5195);fill-opacity:1;stroke:#000000;stroke-width:2;stroke-linecap:butt;stroke-linejoin:round;stroke-miterlimit:4;stroke-opacity:1;stroke-dasharray:none;stroke-dashoffset:2.925" />
    <path
       d="m 440,300 a 140,140 0 1 1 -280,0 140,140 0 1 1 280,0 z"
       transform="translate(0,452.36218)"
       id="path5197"
       style="fill:none;stroke:#000000;stroke-width:2;stroke-linecap:butt;stroke-linejoin:round;stroke-miterlimit:4;stroke-opacity:1;stroke-dasharray:none;stroke-dashoffset:2.925" />
    <path
       d="m 480,340 a 180,200 0 1 1 -360,0 180,200 0 1 1 360,0 z"
       transform="translate(0,472.36218)"
       id="path5199"
       style="fill:none;stroke:#000000;stroke-width:2;stroke-linecap:butt;stroke-linejoin:round;stroke-miterlimit:4;stroke-opacity:1;stroke-dasharray:none;stroke-dashoffset:2.925" />
    <path
       d="m 0,500 c 0,0 100,-340 300,-340 200,0 300,340 300,340"
       transform="translate(0,452.36218)"
       id="path5201"
       style="fill:none;stroke:#000000;stroke-width:2;stroke-linecap:butt;stroke-linejoin:miter;stroke-miterlimit:4;stroke-opacity:1;stroke-dasharray:none" />
    <path
       d="M 0,500 180,0"
       transform="translate(0,452.36218)"
       id="path5203"
       style="fill:none;stroke:#000000;stroke-width:1;stroke-linecap:butt;stroke-linejoin:miter;stroke-miterlimit:4;stroke-opacity:1;stroke-dasharray:4, 4;stroke-dashoffset:0" />
    <path
       d="m 600,952.36218 -180,-500"
       id="path5207"
       style="fill:none;stroke:#000000;stroke-width:1;stroke-linecap:butt;stroke-linejoin:miter;stroke-miterlimit:4;stroke-opacity:1;stroke-dasharray:4, 4;stroke-dashoffset:0" />
    <flowRoot
       transform="translate(31.073242,489.17597)"
       id="flowRoot5253"
       xml:space="preserve"
       style="font-size:20px;font-style:normal;font-variant:normal;font-weight:bold;font-stretch:normal;line-height:125%;letter-spacing:0px;word-spacing:0px;fill:#000000;fill-opacity:1;stroke:none;font-family:Georgia;-inkscape-font-specification:Georgia Bold"><flowRegion
         id="flowRegion5255"><rect
           width="181.25"
           height="57.32143"
           x="230.71428"
           y="82.5"
           id="rect5257"
           style="font-style:normal;font-variant:normal;font-weight:bold;font-stretch:normal;font-family:Georgia;-inkscape-font-specification:Georgia Bold" /></flowRegion><flowPara
         id="flowPara5259">Perigee</flowPara></flowRoot>    <path
       d="m 300.39412,161.27812 a 4.3562827,4.3562827 0 1 1 -8.71256,0 4.3562827,4.3562827 0 1 1 8.71256,0 z"
       transform="translate(3.9621582,450.97322)"
       id="path5261"
       style="fill:#000000;fill-opacity:1;stroke:none" />
    <path
       d="m 300.39412,161.27812 a 4.3562827,4.3562827 0 1 1 -8.71256,0 4.3562827,4.3562827 0 1 1 8.71256,0 z"
       transform="translate(3.9621582,730.99788)"
       id="path5263"
       style="fill:#000000;fill-opacity:1;stroke:none" />
    <path
       d="m 300.39412,161.27812 a 4.3562827,4.3562827 0 1 1 -8.71256,0 4.3562827,4.3562827 0 1 1 8.71256,0 z"
       transform="translate(3.9621582,850.99788)"
       id="path5265"
       style="fill:#000000;fill-opacity:1;stroke:none" />
    <flowRoot
       transform="translate(31.073242,854.05281)"
       id="flowRoot5267"
       xml:space="preserve"
       style="font-size:20px;font-style:normal;font-variant:normal;font-weight:bold;font-stretch:normal;line-height:125%;letter-spacing:0px;word-spacing:0px;fill:#000000;fill-opacity:1;stroke:none;font-family:Georgia;-inkscape-font-specification:Georgia Bold"><flowRegion
         id="flowRegion5269"><rect
           width="181.25"
           height="57.32143"
           x="230.71428"
           y="82.5"
           id="rect5271"
           style="font-style:normal;font-variant:normal;font-weight:bold;font-stretch:normal;font-family:Georgia;-inkscape-font-specification:Georgia Bold" /></flowRegion><flowPara
         id="flowPara5273">Apogee</flowPara></flowRoot>    <path
       d="m 300,480 c 0,-20 0,-20 0,-20"
       transform="translate(0,452.36218)"
       id="path5275"
       style="fill:none;stroke:#000000;stroke-width:1;stroke-linecap:butt;stroke-linejoin:miter;stroke-miterlimit:4;stroke-opacity:1;stroke-dasharray:none;marker-end:url(#Arrow1Mend)" />
    <path
       d="m 300,972.36218 c 0,20 0,20 0,20"
       id="path5907"
       style="fill:none;stroke:#000000;stroke-width:1;stroke-linecap:butt;stroke-linejoin:miter;stroke-miterlimit:4;stroke-opacity:1;stroke-dasharray:none;marker-end:url(#Arrow1Mend)" />
    <g
       id="g6991">
      <path
         d="m 200,611.42468 0,1.875 100,0 0,-1.875 -100,0 z"
         id="path5909"
         style="font-size:medium;font-style:normal;font-variant:normal;font-weight:normal;font-stretch:normal;text-indent:0;text-align:start;text-decoration:none;line-height:normal;letter-spacing:normal;word-spacing:normal;text-transform:none;direction:ltr;block-progression:tb;writing-mode:lr-tb;text-anchor:start;baseline-shift:baseline;color:#000000;fill:#000000;fill-opacity:1;stroke:none;stroke-width:1.89999998;marker:none;visibility:visible;display:inline;overflow:visible;enable-background:accumulate;font-family:Sans;-inkscape-font-specification:Sans" />
      <path
         d="m 207.6,612.36218 3.8,-3.8 -13.3,3.8 13.3,3.8 -3.8,-3.8 z"
         id="path6997"
         style="fill-rule:evenodd;stroke:#000000;stroke-width:0.75999999pt" />
    </g>
    <g
       id="g7007">
      <path
         d="m 240,611.40625 0,1.90625 60,0 0,-1.90625 -60,0 z"
         id="path6095"
         style="font-size:medium;font-style:normal;font-variant:normal;font-weight:normal;font-stretch:normal;text-indent:0;text-align:start;text-decoration:none;line-height:normal;letter-spacing:normal;word-spacing:normal;text-transform:none;direction:ltr;block-progression:tb;writing-mode:lr-tb;text-anchor:start;baseline-shift:baseline;color:#000000;fill:#000000;fill-opacity:1;stroke:none;stroke-width:1.89999998;marker:none;visibility:visible;display:inline;overflow:visible;enable-background:accumulate;font-family:Sans;-inkscape-font-specification:Sans" />
      <path
         d="m 247.6,612.36218 3.8,-3.8 -13.3,3.8 13.3,3.8 -3.8,-3.8 z"
         id="path7013"
         style="fill-rule:evenodd;stroke:#000000;stroke-width:0.75999999pt" />
    </g>
    <g
       id="g6999">
      <path
         d="m 220,611.40625 0,1.90625 80,0 0,-1.90625 -80,0 z"
         id="path6097"
         style="font-size:medium;font-style:normal;font-variant:normal;font-weight:normal;font-stretch:normal;text-indent:0;text-align:start;text-decoration:none;line-height:normal;letter-spacing:normal;word-spacing:normal;text-transform:none;direction:ltr;block-progression:tb;writing-mode:lr-tb;text-anchor:start;baseline-shift:baseline;color:#000000;fill:#000000;fill-opacity:1;stroke:none;stroke-width:1.89999998;marker:none;visibility:visible;display:inline;overflow:visible;enable-background:accumulate;font-family:Sans;-inkscape-font-specification:Sans" />
      <path
         d="m 227.6,612.36218 3.8,-3.8 -13.3,3.8 13.3,3.8 -3.8,-3.8 z"
         id="path7005"
         style="fill-rule:evenodd;stroke:#000000;stroke-width:0.75999999pt" />
    </g>
  </g>
</svg>
