<?xml version="1.0" encoding="UTF-8" standalone="no"?>
<!-- Created with Inkscape (http://www.inkscape.org/) -->

<svg
   xmlns:dc="http://purl.org/dc/elements/1.1/"
   xmlns:cc="http://creativecommons.org/ns#"
   xmlns:rdf="http://www.w3.org/1999/02/22-rdf-syntax-ns#"
   xmlns:svg="http://www.w3.org/2000/svg"
   xmlns="http://www.w3.org/2000/svg"
   xmlns:sodipodi="http://sodipodi.sourceforge.net/DTD/sodipodi-0.dtd"
   xmlns:inkscape="http://www.inkscape.org/namespaces/inkscape"
   version="1.1"
   width="185.375"
   height="47.905251"
   id="svg2"
   xml:space="preserve"
   inkscape:version="0.48.5 r10040"
   sodipodi:docname="twobubble.svg"><sodipodi:namedview
     pagecolor="#ffffff"
     bordercolor="#666666"
     borderopacity="1"
     objecttolerance="10"
     gridtolerance="10"
     guidetolerance="10"
     inkscape:pageopacity="0"
     inkscape:pageshadow="2"
     inkscape:window-width="1208"
     inkscape:window-height="224"
     id="namedview3197"
     showgrid="false"
     inkscape:zoom="0.22422803"
     inkscape:cx="372.4375"
     inkscape:cy="497.05375"
     inkscape:window-x="12"
     inkscape:window-y="40"
     inkscape:window-maximized="0"
     inkscape:current-layer="svg2" /><metadata
     id="metadata8"><rdf:RDF><cc:Work
         rdf:about=""><dc:format>image/svg+xml</dc:format><dc:type
           rdf:resource="http://purl.org/dc/dcmitype/StillImage" /></cc:Work></rdf:RDF></metadata><defs
     id="defs6" /><g
     transform="matrix(1.25,0,0,-1.25,0.5625,77.1015)"
     id="g10"><g
       transform="scale(0.1,0.1)"
       id="g12"><path
         d="m 0,425.195 c 9.92578,17.192 34.7422,17.192 44.668,0 9.9258,-17.191 34.7382,-17.191 44.664,0 9.9258,17.192 34.742,17.192 44.668,-0.004 9.926,-17.191 34.742,-17.191 44.668,0 9.926,17.192 34.738,17.192 44.664,0 9.926,-17.191 34.742,-17.191 44.668,0"
         inkscape:connector-curvature="0"
         id="path14"
         style="fill:none;stroke:#000000;stroke-width:9;stroke-linecap:round;stroke-linejoin:round;stroke-miterlimit:10;stroke-opacity:1;stroke-dasharray:none" /><path
         d="m 268,425.191 c 0,92.508 74.992,167.5 167.5,167.5 92.508,0 167.5,-74.992 167.5,-167.5"
         inkscape:connector-curvature="0"
         id="path16"
         style="fill:none;stroke:#000000;stroke-width:9;stroke-linecap:round;stroke-linejoin:round;stroke-miterlimit:10;stroke-opacity:1;stroke-dasharray:none" /><path
         d="m 398.422,559.246 c 10.945,5.797 22.711,10.465 35.183,13.805 25.524,6.84 51.254,7.398 75.543,2.625 -18.648,16.277 -41.207,28.66 -66.734,35.5 -12.473,3.34 -24.992,5.183 -37.371,5.636"
         inkscape:connector-curvature="0"
         id="path18"
         style="fill:#000000;fill-opacity:1;fill-rule:nonzero;stroke:none" /><path
         d="m 603,425.191 c 0,-92.507 -74.992,-167.5 -167.5,-167.5 -92.508,0 -167.5,74.993 -167.5,167.5"
         inkscape:connector-curvature="0"
         id="path20"
         style="fill:none;stroke:#000000;stroke-width:9;stroke-linecap:round;stroke-linejoin:round;stroke-miterlimit:10;stroke-opacity:1;stroke-dasharray:none" /><path
         d="m 472.582,291.141 c -10.949,-5.797 -22.715,-10.465 -35.187,-13.805 -25.524,-6.84 -51.254,-7.398 -75.543,-2.625 18.648,-16.281 41.21,-28.66 66.734,-35.5 12.473,-3.344 24.996,-5.184 37.371,-5.637"
         inkscape:connector-curvature="0"
         id="path22"
         style="fill:#000000;fill-opacity:1;fill-rule:nonzero;stroke:none" /><path
         d="m 603,425.191 c 9.926,17.196 34.742,17.196 44.668,0 9.926,-17.191 34.738,-17.191 44.664,0 9.926,17.196 34.742,17.196 44.668,0 9.926,-17.191 34.742,-17.191 44.668,0 9.926,17.192 34.738,17.192 44.664,0 9.926,-17.191 34.742,-17.191 44.668,0"
         inkscape:connector-curvature="0"
         id="path24"
         style="fill:none;stroke:#000000;stroke-width:9;stroke-linecap:round;stroke-linejoin:round;stroke-miterlimit:10;stroke-opacity:1;stroke-dasharray:none" /><path
         d="m 871,425.191 c 0,92.508 74.996,167.504 167.5,167.504 92.51,0 167.5,-74.992 167.5,-167.504"
         inkscape:connector-curvature="0"
         id="path26"
         style="fill:none;stroke:#000000;stroke-width:9;stroke-linecap:round;stroke-linejoin:round;stroke-miterlimit:10;stroke-opacity:1;stroke-dasharray:none" /><path
         d="m 1001.42,559.246 c 10.95,5.801 22.71,10.465 35.19,13.805 25.52,6.84 51.25,7.398 75.54,2.625 -18.65,16.281 -41.21,28.66 -66.73,35.5 -12.47,3.344 -25,5.183 -37.38,5.636"
         inkscape:connector-curvature="0"
         id="path28"
         style="fill:#000000;fill-opacity:1;fill-rule:nonzero;stroke:none" /><path
         d="m 1206,425.191 c 0,-92.507 -74.99,-167.5 -167.5,-167.5 -92.504,0 -167.5,74.993 -167.5,167.5"
         inkscape:connector-curvature="0"
         id="path30"
         style="fill:none;stroke:#000000;stroke-width:9;stroke-linecap:round;stroke-linejoin:round;stroke-miterlimit:10;stroke-opacity:1;stroke-dasharray:none" /><path
         d="m 1075.58,291.137 c -10.94,-5.797 -22.71,-10.461 -35.18,-13.801 -25.53,-6.84 -51.255,-7.398 -75.548,-2.625 18.648,-16.281 41.208,-28.66 66.738,-35.5 12.47,-3.344 24.99,-5.184 37.37,-5.641"
         inkscape:connector-curvature="0"
         id="path32"
         style="fill:#000000;fill-opacity:1;fill-rule:nonzero;stroke:none" /><path
         d="m 1206,425.191 c 9.93,17.196 34.75,17.196 44.67,0 9.93,-17.191 34.74,-17.187 44.67,0 9.92,17.196 34.74,17.196 44.66,0.004 9.93,-17.195 34.75,-17.195 44.67,0 9.93,17.192 34.74,17.192 44.67,0 9.92,-17.195 34.74,-17.195 44.66,0"
         inkscape:connector-curvature="0"
         id="path34"
         style="fill:none;stroke:#000000;stroke-width:9;stroke-linecap:round;stroke-linejoin:round;stroke-miterlimit:10;stroke-opacity:1;stroke-dasharray:none" /></g></g></svg>